<?xml version="1.0" encoding="utf-8" standalone="no"?>
<!DOCTYPE svg PUBLIC "-//W3C//DTD SVG 1.1//EN" "http://www.w3.org/Graphics/SVG/1.1/DTD/svg11.dtd">
<svg width="600" height="400" version="1.1" xmlns:xlink="http://www.w3.org/1999/xlink" xmlns="http://www.w3.org/2000/svg">
  <polyline points="35.8772,370.947 35.8772,374.947" style="fill:none;stroke:black;stroke-width:1" />
  <polyline points="54.8911,370.947 54.8911,374.947" style="fill:none;stroke:black;stroke-width:1" />
  <polyline points="73.905,370.947 73.905,374.947" style="fill:none;stroke:black;stroke-width:1" />
  <polyline points="111.9328,370.947 111.9328,374.947" style="fill:none;stroke:black;stroke-width:1" />
  <polyline points="130.9467,370.947 130.9467,374.947" style="fill:none;stroke:black;stroke-width:1" />
  <polyline points="149.9606,370.947 149.9606,374.947" style="fill:none;stroke:black;stroke-width:1" />
  <polyline points="168.9745,370.947 168.9745,374.947" style="fill:none;stroke:black;stroke-width:1" />
  <polyline points="207.0023,370.947 207.0023,374.947" style="fill:none;stroke:black;stroke-width:1" />
  <polyline points="226.0162,370.947 226.0162,374.947" style="fill:none;stroke:black;stroke-width:1" />
  <polyline points="245.0301,370.947 245.0301,374.947" style="fill:none;stroke:black;stroke-width:1" />
  <polyline points="264.044,370.947 264.044,374.947" style="fill:none;stroke:black;stroke-width:1" />
  <polyline points="302.0718,370.947 302.0718,374.947" style="fill:none;stroke:black;stroke-width:1" />
  <polyline points="321.0857,370.947 321.0857,374.947" style="fill:none;stroke:black;stroke-width:1" />
  <polyline points="340.0996,370.947 340.0996,374.947" style="fill:none;stroke:black;stroke-width:1" />
  <polyline points="359.1135,370.947 359.1135,374.947" style="fill:none;stroke:black;stroke-width:1" />
  <polyline points="397.1413,370.947 397.1413,374.947" style="fill:none;stroke:black;stroke-width:1" />
  <polyline points="416.1552,370.947 416.1552,374.947" style="fill:none;stroke:black;stroke-width:1" />
  <polyline points="435.1691,370.947 435.1691,374.947" style="fill:none;stroke:black;stroke-width:1" />
  <polyline points="454.183,370.947 454.183,374.947" style="fill:none;stroke:black;stroke-width:1" />
  <polyline points="492.2108,370.947 492.2108,374.947" style="fill:none;stroke:black;stroke-width:1" />
  <polyline points="511.2247,370.947 511.2247,374.947" style="fill:none;stroke:black;stroke-width:1" />
  <polyline points="530.2386,370.947 530.2386,374.947" style="fill:none;stroke:black;stroke-width:1" />
  <polyline points="549.2525,370.947 549.2525,374.947" style="fill:none;stroke:black;stroke-width:1" />
  <polyline points="587.2803,370.947 587.2803,374.947" style="fill:none;stroke:black;stroke-width:1" />
  <polyline points="34.498,353.5459 30.498,353.5459" style="fill:none;stroke:black;stroke-width:1" />
  <polyline points="34.498,341.1822 30.498,341.1822" style="fill:none;stroke:black;stroke-width:1" />
  <polyline points="34.498,328.8185 30.498,328.8185" style="fill:none;stroke:black;stroke-width:1" />
  <polyline points="34.498,316.4548 30.498,316.4548" style="fill:none;stroke:black;stroke-width:1" />
  <polyline points="34.498,291.7274 30.498,291.7274" style="fill:none;stroke:black;stroke-width:1" />
  <polyline points="34.498,279.3637 30.498,279.3637" style="fill:none;stroke:black;stroke-width:1" />
  <polyline points="34.498,266.9999 30.498,266.9999" style="fill:none;stroke:black;stroke-width:1" />
  <polyline points="34.498,254.6362 30.498,254.6362" style="fill:none;stroke:black;stroke-width:1" />
  <polyline points="34.498,229.9088 30.498,229.9088" style="fill:none;stroke:black;stroke-width:1" />
  <polyline points="34.498,217.5451 30.498,217.5451" style="fill:none;stroke:black;stroke-width:1" />
  <polyline points="34.498,205.1814 30.498,205.1814" style="fill:none;stroke:black;stroke-width:1" />
  <polyline points="34.498,192.8176 30.498,192.8176" style="fill:none;stroke:black;stroke-width:1" />
  <polyline points="34.498,168.0902 30.498,168.0902" style="fill:none;stroke:black;stroke-width:1" />
  <polyline points="34.498,155.7265 30.498,155.7265" style="fill:none;stroke:black;stroke-width:1" />
  <polyline points="34.498,143.3628 30.498,143.3628" style="fill:none;stroke:black;stroke-width:1" />
  <polyline points="34.498,130.9991 30.498,130.9991" style="fill:none;stroke:black;stroke-width:1" />
  <polyline points="34.498,106.2716 30.498,106.2716" style="fill:none;stroke:black;stroke-width:1" />
  <polyline points="34.498,93.9079 30.498,93.9079" style="fill:none;stroke:black;stroke-width:1" />
  <polyline points="34.498,81.5442 30.498,81.5442" style="fill:none;stroke:black;stroke-width:1" />
  <polyline points="34.498,69.1805 30.498,69.1805" style="fill:none;stroke:black;stroke-width:1" />
  <polyline points="34.498,44.4531 30.498,44.4531" style="fill:none;stroke:black;stroke-width:1" />
  <polyline points="34.498,32.0894 30.498,32.0894" style="fill:none;stroke:black;stroke-width:1" />
  <text dominant-baseline="hanging" text-anchor="middle" transform="translate(92.9189,381.947)" font-family="Segoe UI" font-size="12" font-weight="400" fill="black">-1</text>
  <text dominant-baseline="hanging" text-anchor="middle" transform="translate(187.9884,381.947)" font-family="Segoe UI" font-size="12" font-weight="400" fill="black">-0,5</text>
  <text dominant-baseline="hanging" text-anchor="middle" transform="translate(283.0579,381.947)" font-family="Segoe UI" font-size="12" font-weight="400" fill="black">0</text>
  <text dominant-baseline="hanging" text-anchor="middle" transform="translate(378.1274,381.947)" font-family="Segoe UI" font-size="12" font-weight="400" fill="black">0,5</text>
  <text dominant-baseline="hanging" text-anchor="middle" transform="translate(473.1969,381.947)" font-family="Segoe UI" font-size="12" font-weight="400" fill="black">1</text>
  <text dominant-baseline="hanging" text-anchor="middle" transform="translate(568.2664,381.947)" font-family="Segoe UI" font-size="12" font-weight="400" fill="black">1,5</text>
  <polyline points="92.9189,370.947 92.9189,377.947" style="fill:none;stroke:black;stroke-width:1" />
  <polyline points="187.9884,370.947 187.9884,377.947" style="fill:none;stroke:black;stroke-width:1" />
  <polyline points="283.0579,370.947 283.0579,377.947" style="fill:none;stroke:black;stroke-width:1" />
  <polyline points="378.1274,370.947 378.1274,377.947" style="fill:none;stroke:black;stroke-width:1" />
  <polyline points="473.1969,370.947 473.1969,377.947" style="fill:none;stroke:black;stroke-width:1" />
  <polyline points="568.2664,370.947 568.2664,377.947" style="fill:none;stroke:black;stroke-width:1" />
  <text dominant-baseline="middle" text-anchor="end" transform="translate(23.498,365.9097)" font-family="Segoe UI" font-size="12" font-weight="400" fill="black">-1,5</text>
  <text dominant-baseline="middle" text-anchor="end" transform="translate(23.498,304.0911)" font-family="Segoe UI" font-size="12" font-weight="400" fill="black">-1</text>
  <text dominant-baseline="middle" text-anchor="end" transform="translate(23.498,242.2725)" font-family="Segoe UI" font-size="12" font-weight="400" fill="black">-0,5</text>
  <text dominant-baseline="middle" text-anchor="end" transform="translate(23.498,180.4539)" font-family="Segoe UI" font-size="12" font-weight="400" fill="black">0</text>
  <text dominant-baseline="middle" text-anchor="end" transform="translate(23.498,118.6354)" font-family="Segoe UI" font-size="12" font-weight="400" fill="black">0,5</text>
  <text dominant-baseline="middle" text-anchor="end" transform="translate(23.498,56.8168)" font-family="Segoe UI" font-size="12" font-weight="400" fill="black">1</text>
  <polyline points="34.498,365.9097 27.498,365.9097" style="fill:none;stroke:black;stroke-width:1" />
  <polyline points="34.498,304.0911 27.498,304.0911" style="fill:none;stroke:black;stroke-width:1" />
  <polyline points="34.498,242.2725 27.498,242.2725" style="fill:none;stroke:black;stroke-width:1" />
  <polyline points="34.498,180.4539 27.498,180.4539" style="fill:none;stroke:black;stroke-width:1" />
  <polyline points="34.498,118.6354 27.498,118.6354" style="fill:none;stroke:black;stroke-width:1" />
  <polyline points="34.498,56.8168 27.498,56.8168" style="fill:none;stroke:black;stroke-width:1" />
  <ellipse cx="178.512" cy="132.4915" rx="5" ry="5" style="fill:rgb(255,0,255);stroke:none;" />
  <ellipse cx="249.9605" cy="88.9878" rx="5" ry="5" style="fill:rgb(255,0,255);stroke:none;" />
  <ellipse cx="146.8578" cy="70.3109" rx="5" ry="5" style="fill:rgb(255,0,255);stroke:none;" />
  <ellipse cx="357.08" cy="83.8199" rx="5" ry="5" style="fill:rgb(255,0,255);stroke:none;" />
  <ellipse cx="199.0384" cy="101.1816" rx="5" ry="5" style="fill:rgb(255,0,255);stroke:none;" />
  <ellipse cx="216.4327" cy="54.9437" rx="5" ry="5" style="fill:rgb(255,0,255);stroke:none;" />
  <ellipse cx="190.2028" cy="131.5859" rx="5" ry="5" style="fill:rgb(255,0,255);stroke:none;" />
  <ellipse cx="163.3685" cy="98.84" rx="5" ry="5" style="fill:rgb(255,0,255);stroke:none;" />
  <ellipse cx="101.4765" cy="37.8183" rx="5" ry="5" style="fill:rgb(255,0,255);stroke:none;" />
  <ellipse cx="116.9547" cy="51.3981" rx="5" ry="5" style="fill:rgb(255,0,255);stroke:none;" />
  <ellipse cx="203.0056" cy="154.1311" rx="5" ry="5" style="fill:rgb(255,0,255);stroke:none;" />
  <ellipse cx="187.2907" cy="118.7149" rx="5" ry="5" style="fill:rgb(255,0,255);stroke:none;" />
  <ellipse cx="304.2727" cy="32.4308" rx="5" ry="5" style="fill:rgb(255,0,255);stroke:none;" />
  <ellipse cx="301.2463" cy="122.5457" rx="5" ry="5" style="fill:rgb(255,0,255);stroke:none;" />
  <ellipse cx="191.9425" cy="90.2962" rx="5" ry="5" style="fill:rgb(255,0,255);stroke:none;" />
  <ellipse cx="253.7697" cy="106.878" rx="5" ry="5" style="fill:rgb(255,0,255);stroke:none;" />
  <ellipse cx="245.9466" cy="147.6737" rx="5" ry="5" style="fill:rgb(255,0,255);stroke:none;" />
  <ellipse cx="213.4287" cy="136.8648" rx="5" ry="5" style="fill:rgb(255,0,255);stroke:none;" />
  <ellipse cx="217.7707" cy="217.3529" rx="5" ry="5" style="fill:rgb(0,63,255);stroke:none;" />
  <ellipse cx="225.2886" cy="282.5647" rx="5" ry="5" style="fill:rgb(0,63,255);stroke:none;" />
  <ellipse cx="205.8009" cy="277.1539" rx="5" ry="5" style="fill:rgb(0,63,255);stroke:none;" />
  <ellipse cx="209.5929" cy="210.5975" rx="5" ry="5" style="fill:rgb(0,63,255);stroke:none;" />
  <ellipse cx="182.5925" cy="332.8832" rx="5" ry="5" style="fill:rgb(0,63,255);stroke:none;" />
  <ellipse cx="168.8619" cy="367.5622" rx="5" ry="5" style="fill:rgb(0,63,255);stroke:none;" />
  <ellipse cx="168.8619" cy="367.5622" rx="5" ry="5" style="fill:rgb(0,63,255);stroke:none;" />
  <ellipse cx="325.2167" cy="163.4816" rx="5" ry="5" style="fill:rgb(0,63,255);stroke:none;" />
  <ellipse cx="172.1261" cy="127.2219" rx="5" ry="5" style="fill:rgb(0,63,255);stroke:none;" />
  <ellipse cx="205.174" cy="173.8102" rx="5" ry="5" style="fill:rgb(0,63,255);stroke:none;" />
  <ellipse cx="239.4252" cy="183.7154" rx="5" ry="5" style="fill:rgb(0,63,255);stroke:none;" />
  <ellipse cx="234.6777" cy="192.9083" rx="5" ry="5" style="fill:rgb(0,63,255);stroke:none;" />
  <ellipse cx="260.4796" cy="203.1861" rx="5" ry="5" style="fill:rgb(0,63,255);stroke:none;" />
  <ellipse cx="338.436" cy="188.2614" rx="5" ry="5" style="fill:rgb(0,63,255);stroke:none;" />
  <ellipse cx="333.2958" cy="188.9605" rx="5" ry="5" style="fill:rgb(0,63,255);stroke:none;" />
  <ellipse cx="310.2533" cy="186.385" rx="5" ry="5" style="fill:rgb(0,63,255);stroke:none;" />
  <ellipse cx="170.7089" cy="163.8092" rx="5" ry="5" style="fill:rgb(0,63,255);stroke:none;" />
  <ellipse cx="219.8758" cy="156.6575" rx="5" ry="5" style="fill:rgb(0,63,255);stroke:none;" />
  <ellipse cx="229.9507" cy="185.2754" rx="5" ry="5" style="fill:rgb(0,63,255);stroke:none;" />
  <ellipse cx="248.2708" cy="196.9131" rx="5" ry="5" style="fill:rgb(0,63,255);stroke:none;" />
  <ellipse cx="233.1343" cy="191.3557" rx="5" ry="5" style="fill:rgb(0,63,255);stroke:none;" />
  <ellipse cx="200.2463" cy="137.1162" rx="5" ry="5" style="fill:rgb(0,63,255);stroke:none;" />
  <ellipse cx="261.6404" cy="150.4873" rx="5" ry="5" style="fill:rgb(0,63,255);stroke:none;" />
  <ellipse cx="319.1162" cy="181.7855" rx="5" ry="5" style="fill:rgb(0,63,255);stroke:none;" />
  <ellipse cx="204.1672" cy="178.7243" rx="5" ry="5" style="fill:rgb(0,63,255);stroke:none;" />
  <ellipse cx="195.106" cy="137.8153" rx="5" ry="5" style="fill:rgb(0,63,255);stroke:none;" />
  <ellipse cx="217.2508" cy="147.3595" rx="5" ry="5" style="fill:rgb(0,63,255);stroke:none;" />
  <ellipse cx="251.3861" cy="196.9538" rx="5" ry="5" style="fill:rgb(0,63,255);stroke:none;" />
  <ellipse cx="219.4565" cy="255.0565" rx="5" ry="5" style="fill:rgb(0,63,255);stroke:none;" />
  <ellipse cx="225.7373" cy="181.5002" rx="5" ry="5" style="fill:rgb(0,63,255);stroke:none;" />
  <ellipse cx="193.6506" cy="343.6751" rx="5" ry="5" style="fill:rgb(0,63,255);stroke:none;" />
  <ellipse cx="236.3466" cy="293.3567" rx="5" ry="5" style="fill:rgb(0,63,255);stroke:none;" />
  <ellipse cx="236.3466" cy="293.3567" rx="5" ry="5" style="fill:rgb(0,63,255);stroke:none;" />
  <ellipse cx="236.3466" cy="293.3567" rx="5" ry="5" style="fill:rgb(0,63,255);stroke:none;" />
  <ellipse cx="193.6506" cy="343.6751" rx="5" ry="5" style="fill:rgb(0,63,255);stroke:none;" />
  <ellipse cx="207.3813" cy="308.9961" rx="5" ry="5" style="fill:rgb(0,63,255);stroke:none;" />
  <ellipse cx="207.3813" cy="308.9961" rx="5" ry="5" style="fill:rgb(0,63,255);stroke:none;" />
  <ellipse cx="207.3813" cy="308.9961" rx="5" ry="5" style="fill:rgb(0,63,255);stroke:none;" />
  <ellipse cx="230.5896" cy="253.2668" rx="5" ry="5" style="fill:rgb(0,63,255);stroke:none;" />
  <ellipse cx="244.8907" cy="162.6928" rx="5" ry="5" style="fill:rgb(0,63,255);stroke:none;" />
  <ellipse cx="487.9764" cy="180.9098" rx="5" ry="5" style="fill:rgb(0,191,127);stroke:none;" />
  <ellipse cx="538.3923" cy="179.5408" rx="5" ry="5" style="fill:rgb(0,191,127);stroke:none;" />
  <ellipse cx="479.8234" cy="165.3568" rx="5" ry="5" style="fill:rgb(0,191,127);stroke:none;" />
  <ellipse cx="410.6434" cy="190.6864" rx="5" ry="5" style="fill:rgb(0,191,127);stroke:none;" />
  <ellipse cx="495.5634" cy="189.1542" rx="5" ry="5" style="fill:rgb(0,191,127);stroke:none;" />
  <ellipse cx="522.4805" cy="180.7466" rx="5" ry="5" style="fill:rgb(0,191,127);stroke:none;" />
  <ellipse cx="415.769" cy="178.4848" rx="5" ry="5" style="fill:rgb(0,191,127);stroke:none;" />
  <ellipse cx="552.0308" cy="167.7818" rx="5" ry="5" style="fill:rgb(0,191,127);stroke:none;" />
  <ellipse cx="410.6434" cy="190.6864" rx="5" ry="5" style="fill:rgb(0,191,127);stroke:none;" />
  <ellipse cx="586.5348" cy="167.6186" rx="5" ry="5" style="fill:rgb(0,191,127);stroke:none;" />
  <ellipse cx="486.8804" cy="182.4688" rx="5" ry="5" style="fill:rgb(0,191,127);stroke:none;" />
  <ellipse cx="409.5474" cy="192.2454" rx="5" ry="5" style="fill:rgb(0,191,127);stroke:none;" />
  <ellipse cx="409.5474" cy="192.2454" rx="5" ry="5" style="fill:rgb(0,191,127);stroke:none;" />
  <ellipse cx="537.2964" cy="181.0998" rx="5" ry="5" style="fill:rgb(0,191,127);stroke:none;" />
  <ellipse cx="395.909" cy="204.0044" rx="5" ry="5" style="fill:rgb(0,191,127);stroke:none;" />
  <ellipse cx="473.242" cy="194.2278" rx="5" ry="5" style="fill:rgb(0,191,127);stroke:none;" />
  <ellipse cx="338.0914" cy="200.5218" rx="5" ry="5" style="fill:rgb(0,191,127);stroke:none;" />
  <ellipse cx="422.826" cy="195.5967" rx="5" ry="5" style="fill:rgb(0,191,127);stroke:none;" />
  <ellipse cx="271.7159" cy="115.993" rx="5" ry="5" style="fill:rgb(191,223,0);stroke:none;" />
  <ellipse cx="260.932" cy="109.6494" rx="5" ry="5" style="fill:rgb(191,223,0);stroke:none;" />
  <ellipse cx="348.5637" cy="145.0284" rx="5" ry="5" style="fill:rgb(191,223,0);stroke:none;" />
  <ellipse cx="388.852" cy="186.8924" rx="5" ry="5" style="fill:rgb(191,223,0);stroke:none;" />
  <ellipse cx="564.7435" cy="163.8247" rx="5" ry="5" style="fill:rgb(191,223,0);stroke:none;" />
  <ellipse cx="337.34" cy="189.8204" rx="5" ry="5" style="fill:rgb(191,223,0);stroke:none;" />
  <ellipse cx="414.6731" cy="180.0438" rx="5" ry="5" style="fill:rgb(191,223,0);stroke:none;" />
  <ellipse cx="499.5931" cy="178.5116" rx="5" ry="5" style="fill:rgb(191,223,0);stroke:none;" />
  <ellipse cx="337.34" cy="189.8204" rx="5" ry="5" style="fill:rgb(191,223,0);stroke:none;" />
  <ellipse cx="319.02" cy="178.1827" rx="5" ry="5" style="fill:rgb(191,223,0);stroke:none;" />
  <ellipse cx="422.2601" cy="188.2883" rx="5" ry="5" style="fill:rgb(191,223,0);stroke:none;" />
  <ellipse cx="337.34" cy="189.8204" rx="5" ry="5" style="fill:rgb(191,223,0);stroke:none;" />
  <ellipse cx="401.0347" cy="191.8028" rx="5" ry="5" style="fill:rgb(191,223,0);stroke:none;" />
  <ellipse cx="401.0347" cy="191.8028" rx="5" ry="5" style="fill:rgb(191,223,0);stroke:none;" />
  <ellipse cx="322.141" cy="194.0697" rx="5" ry="5" style="fill:rgb(191,223,0);stroke:none;" />
  <ellipse cx="83.6837" cy="196.852" rx="5" ry="5" style="fill:rgb(255,0,0);stroke:none;" />
  <ellipse cx="122.9848" cy="140.3503" rx="5" ry="5" style="fill:rgb(255,0,0);stroke:none;" />
  <ellipse cx="131.7675" cy="240.0353" rx="5" ry="5" style="fill:rgb(255,0,0);stroke:none;" />
  <ellipse cx="135.0692" cy="117.1496" rx="5" ry="5" style="fill:rgb(255,0,0);stroke:none;" />
  <ellipse cx="40.0178" cy="168.2086" rx="5" ry="5" style="fill:rgb(255,0,0);stroke:none;" />
  <ellipse cx="237.0934" cy="105.1588" rx="5" ry="5" style="fill:rgb(255,0,0);stroke:none;" />
  <ellipse cx="186.2677" cy="96.637" rx="5" ry="5" style="fill:rgb(255,0,0);stroke:none;" />
  <ellipse cx="76.8753" cy="154.0428" rx="5" ry="5" style="fill:rgb(255,0,0);stroke:none;" />
  <ellipse cx="273.9222" cy="126.606" rx="5" ry="5" style="fill:rgb(255,0,0);stroke:none;" />
  <text dominant-baseline="hanging" text-anchor="middle" transform="translate(313.249,8)" font-family="Segoe UI" font-size="18" font-weight="700" fill="black">Customer Segmentation</text>
  <polygon points="34.498,29.0795 592,29.0795 592,370.947 34.498,370.947" style="fill:none;stroke:black;stroke-width:1" />
  <polygon points="509.516,37.0795 584,37.0795 584,103.3445 509.516,103.3445" style="fill:none;stroke:none;" />
  <text dominant-baseline="hanging" text-anchor="start" transform="translate(537.516,45.0795)" font-family="Segoe UI" font-size="12" font-weight="400" fill="black">Cluster: 1</text>
  <ellipse cx="525.516" cy="50.106" rx="5" ry="5" style="fill:rgb(255,0,255);stroke:none;" />
  <text dominant-baseline="hanging" text-anchor="start" transform="translate(537.516,55.1325)" font-family="Segoe UI" font-size="12" font-weight="400" fill="black">Cluster: 2</text>
  <ellipse cx="525.516" cy="60.159" rx="5" ry="5" style="fill:rgb(0,63,255);stroke:none;" />
  <text dominant-baseline="hanging" text-anchor="start" transform="translate(537.516,65.1855)" font-family="Segoe UI" font-size="12" font-weight="400" fill="black">Cluster: 3</text>
  <ellipse cx="525.516" cy="70.212" rx="5" ry="5" style="fill:rgb(0,191,127);stroke:none;" />
  <text dominant-baseline="hanging" text-anchor="start" transform="translate(537.516,75.2385)" font-family="Segoe UI" font-size="12" font-weight="400" fill="black">Cluster: 4</text>
  <ellipse cx="525.516" cy="80.265" rx="5" ry="5" style="fill:rgb(191,223,0);stroke:none;" />
  <text dominant-baseline="hanging" text-anchor="start" transform="translate(537.516,85.2915)" font-family="Segoe UI" font-size="12" font-weight="400" fill="black">Cluster: 5</text>
  <ellipse cx="525.516" cy="90.318" rx="5" ry="5" style="fill:rgb(255,0,0);stroke:none;" />
</svg>