<?xml version="1.0" encoding="utf-8" standalone="no"?>
<!DOCTYPE svg PUBLIC "-//W3C//DTD SVG 1.1//EN" "http://www.w3.org/Graphics/SVG/1.1/DTD/svg11.dtd">
<svg width="600" height="400" version="1.1" xmlns:xlink="http://www.w3.org/1999/xlink" xmlns="http://www.w3.org/2000/svg">
  <polyline points="36.3885,370.947 36.3885,374.947" style="fill:none;stroke:black;stroke-width:1" />
  <polyline points="55.4278,370.947 55.4278,374.947" style="fill:none;stroke:black;stroke-width:1" />
  <polyline points="74.4671,370.947 74.4671,374.947" style="fill:none;stroke:black;stroke-width:1" />
  <polyline points="112.5456,370.947 112.5456,374.947" style="fill:none;stroke:black;stroke-width:1" />
  <polyline points="131.5849,370.947 131.5849,374.947" style="fill:none;stroke:black;stroke-width:1" />
  <polyline points="150.6241,370.947 150.6241,374.947" style="fill:none;stroke:black;stroke-width:1" />
  <polyline points="169.6634,370.947 169.6634,374.947" style="fill:none;stroke:black;stroke-width:1" />
  <polyline points="207.742,370.947 207.742,374.947" style="fill:none;stroke:black;stroke-width:1" />
  <polyline points="226.7812,370.947 226.7812,374.947" style="fill:none;stroke:black;stroke-width:1" />
  <polyline points="245.8205,370.947 245.8205,374.947" style="fill:none;stroke:black;stroke-width:1" />
  <polyline points="264.8598,370.947 264.8598,374.947" style="fill:none;stroke:black;stroke-width:1" />
  <polyline points="302.9383,370.947 302.9383,374.947" style="fill:none;stroke:black;stroke-width:1" />
  <polyline points="321.9776,370.947 321.9776,374.947" style="fill:none;stroke:black;stroke-width:1" />
  <polyline points="341.0169,370.947 341.0169,374.947" style="fill:none;stroke:black;stroke-width:1" />
  <polyline points="360.0561,370.947 360.0561,374.947" style="fill:none;stroke:black;stroke-width:1" />
  <polyline points="398.1347,370.947 398.1347,374.947" style="fill:none;stroke:black;stroke-width:1" />
  <polyline points="417.1739,370.947 417.1739,374.947" style="fill:none;stroke:black;stroke-width:1" />
  <polyline points="436.2132,370.947 436.2132,374.947" style="fill:none;stroke:black;stroke-width:1" />
  <polyline points="455.2525,370.947 455.2525,374.947" style="fill:none;stroke:black;stroke-width:1" />
  <polyline points="493.331,370.947 493.331,374.947" style="fill:none;stroke:black;stroke-width:1" />
  <polyline points="512.3703,370.947 512.3703,374.947" style="fill:none;stroke:black;stroke-width:1" />
  <polyline points="531.4096,370.947 531.4096,374.947" style="fill:none;stroke:black;stroke-width:1" />
  <polyline points="550.4488,370.947 550.4488,374.947" style="fill:none;stroke:black;stroke-width:1" />
  <polyline points="588.5274,370.947 588.5274,374.947" style="fill:none;stroke:black;stroke-width:1" />
  <polyline points="34.498,353.0433 30.498,353.0433" style="fill:none;stroke:black;stroke-width:1" />
  <polyline points="34.498,340.8401 30.498,340.8401" style="fill:none;stroke:black;stroke-width:1" />
  <polyline points="34.498,328.6369 30.498,328.6369" style="fill:none;stroke:black;stroke-width:1" />
  <polyline points="34.498,316.4337 30.498,316.4337" style="fill:none;stroke:black;stroke-width:1" />
  <polyline points="34.498,292.0274 30.498,292.0274" style="fill:none;stroke:black;stroke-width:1" />
  <polyline points="34.498,279.8242 30.498,279.8242" style="fill:none;stroke:black;stroke-width:1" />
  <polyline points="34.498,267.621 30.498,267.621" style="fill:none;stroke:black;stroke-width:1" />
  <polyline points="34.498,255.4178 30.498,255.4178" style="fill:none;stroke:black;stroke-width:1" />
  <polyline points="34.498,231.0114 30.498,231.0114" style="fill:none;stroke:black;stroke-width:1" />
  <polyline points="34.498,218.8082 30.498,218.8082" style="fill:none;stroke:black;stroke-width:1" />
  <polyline points="34.498,206.605 30.498,206.605" style="fill:none;stroke:black;stroke-width:1" />
  <polyline points="34.498,194.4019 30.498,194.4019" style="fill:none;stroke:black;stroke-width:1" />
  <polyline points="34.498,169.9955 30.498,169.9955" style="fill:none;stroke:black;stroke-width:1" />
  <polyline points="34.498,157.7923 30.498,157.7923" style="fill:none;stroke:black;stroke-width:1" />
  <polyline points="34.498,145.5891 30.498,145.5891" style="fill:none;stroke:black;stroke-width:1" />
  <polyline points="34.498,133.3859 30.498,133.3859" style="fill:none;stroke:black;stroke-width:1" />
  <polyline points="34.498,108.9795 30.498,108.9795" style="fill:none;stroke:black;stroke-width:1" />
  <polyline points="34.498,96.7763 30.498,96.7763" style="fill:none;stroke:black;stroke-width:1" />
  <polyline points="34.498,84.5732 30.498,84.5732" style="fill:none;stroke:black;stroke-width:1" />
  <polyline points="34.498,72.37 30.498,72.37" style="fill:none;stroke:black;stroke-width:1" />
  <polyline points="34.498,47.9636 30.498,47.9636" style="fill:none;stroke:black;stroke-width:1" />
  <polyline points="34.498,35.7604 30.498,35.7604" style="fill:none;stroke:black;stroke-width:1" />
  <text dominant-baseline="hanging" text-anchor="middle" transform="translate(93.5063,381.947)" font-family="Segoe UI" font-size="12" font-weight="400" fill="black">-1</text>
  <text dominant-baseline="hanging" text-anchor="middle" transform="translate(188.7027,381.947)" font-family="Segoe UI" font-size="12" font-weight="400" fill="black">-0.5</text>
  <text dominant-baseline="hanging" text-anchor="middle" transform="translate(283.899,381.947)" font-family="Segoe UI" font-size="12" font-weight="400" fill="black">0</text>
  <text dominant-baseline="hanging" text-anchor="middle" transform="translate(379.0954,381.947)" font-family="Segoe UI" font-size="12" font-weight="400" fill="black">0.5</text>
  <text dominant-baseline="hanging" text-anchor="middle" transform="translate(474.2918,381.947)" font-family="Segoe UI" font-size="12" font-weight="400" fill="black">1</text>
  <text dominant-baseline="hanging" text-anchor="middle" transform="translate(569.4881,381.947)" font-family="Segoe UI" font-size="12" font-weight="400" fill="black">1.5</text>
  <polyline points="93.5063,370.947 93.5063,377.947" style="fill:none;stroke:black;stroke-width:1" />
  <polyline points="188.7027,370.947 188.7027,377.947" style="fill:none;stroke:black;stroke-width:1" />
  <polyline points="283.899,370.947 283.899,377.947" style="fill:none;stroke:black;stroke-width:1" />
  <polyline points="379.0954,370.947 379.0954,377.947" style="fill:none;stroke:black;stroke-width:1" />
  <polyline points="474.2918,370.947 474.2918,377.947" style="fill:none;stroke:black;stroke-width:1" />
  <polyline points="569.4881,370.947 569.4881,377.947" style="fill:none;stroke:black;stroke-width:1" />
  <text dominant-baseline="middle" text-anchor="end" transform="translate(23.498,365.2465)" font-family="Segoe UI" font-size="12" font-weight="400" fill="black">-1.5</text>
  <text dominant-baseline="middle" text-anchor="end" transform="translate(23.498,304.2306)" font-family="Segoe UI" font-size="12" font-weight="400" fill="black">-1</text>
  <text dominant-baseline="middle" text-anchor="end" transform="translate(23.498,243.2146)" font-family="Segoe UI" font-size="12" font-weight="400" fill="black">-0.5</text>
  <text dominant-baseline="middle" text-anchor="end" transform="translate(23.498,182.1987)" font-family="Segoe UI" font-size="12" font-weight="400" fill="black">0</text>
  <text dominant-baseline="middle" text-anchor="end" transform="translate(23.498,121.1827)" font-family="Segoe UI" font-size="12" font-weight="400" fill="black">0.5</text>
  <text dominant-baseline="middle" text-anchor="end" transform="translate(23.498,60.1668)" font-family="Segoe UI" font-size="12" font-weight="400" fill="black">1</text>
  <polyline points="34.498,365.2465 27.498,365.2465" style="fill:none;stroke:black;stroke-width:1" />
  <polyline points="34.498,304.2306 27.498,304.2306" style="fill:none;stroke:black;stroke-width:1" />
  <polyline points="34.498,243.2146 27.498,243.2146" style="fill:none;stroke:black;stroke-width:1" />
  <polyline points="34.498,182.1987 27.498,182.1987" style="fill:none;stroke:black;stroke-width:1" />
  <polyline points="34.498,121.1827 27.498,121.1827" style="fill:none;stroke:black;stroke-width:1" />
  <polyline points="34.498,60.1668 27.498,60.1668" style="fill:none;stroke:black;stroke-width:1" />
  <ellipse cx="488.7876" cy="183.1322" rx="5" ry="5" style="fill:rgb(255,0,255);stroke:none;" />
  <ellipse cx="540.8001" cy="183.1754" rx="5" ry="5" style="fill:rgb(255,0,255);stroke:none;" />
  <ellipse cx="480.9397" cy="164.3739" rx="5" ry="5" style="fill:rgb(255,0,255);stroke:none;" />
  <ellipse cx="410.6055" cy="191.0058" rx="5" ry="5" style="fill:rgb(255,0,255);stroke:none;" />
  <ellipse cx="496.8265" cy="189.344" rx="5" ry="5" style="fill:rgb(255,0,255);stroke:none;" />
  <ellipse cx="522.9961" cy="181.4272" rx="5" ry="5" style="fill:rgb(255,0,255);stroke:none;" />
  <ellipse cx="391.2314" cy="188.1232" rx="5" ry="5" style="fill:rgb(255,0,255);stroke:none;" />
  <ellipse cx="417.401" cy="180.2064" rx="5" ry="5" style="fill:rgb(255,0,255);stroke:none;" />
  <ellipse cx="552.3263" cy="167.2997" rx="5" ry="5" style="fill:rgb(255,0,255);stroke:none;" />
  <ellipse cx="410.6055" cy="191.0058" rx="5" ry="5" style="fill:rgb(255,0,255);stroke:none;" />
  <ellipse cx="567.1607" cy="162.7121" rx="5" ry="5" style="fill:rgb(255,0,255);stroke:none;" />
  <ellipse cx="586.5348" cy="165.5947" rx="5" ry="5" style="fill:rgb(255,0,255);stroke:none;" />
  <ellipse cx="415.7942" cy="181.8738" rx="5" ry="5" style="fill:rgb(255,0,255);stroke:none;" />
  <ellipse cx="502.0151" cy="180.212" rx="5" ry="5" style="fill:rgb(255,0,255);stroke:none;" />
  <ellipse cx="487.1807" cy="184.7996" rx="5" ry="5" style="fill:rgb(255,0,255);stroke:none;" />
  <ellipse cx="408.9987" cy="192.6732" rx="5" ry="5" style="fill:rgb(255,0,255);stroke:none;" />
  <ellipse cx="408.9987" cy="192.6732" rx="5" ry="5" style="fill:rgb(255,0,255);stroke:none;" />
  <ellipse cx="423.8331" cy="188.0857" rx="5" ry="5" style="fill:rgb(255,0,255);stroke:none;" />
  <ellipse cx="539.1932" cy="184.8428" rx="5" ry="5" style="fill:rgb(255,0,255);stroke:none;" />
  <ellipse cx="397.4724" cy="208.549" rx="5" ry="5" style="fill:rgb(255,0,255);stroke:none;" />
  <ellipse cx="404.2679" cy="197.7496" rx="5" ry="5" style="fill:rgb(255,0,255);stroke:none;" />
  <ellipse cx="475.6545" cy="200.6754" rx="5" ry="5" style="fill:rgb(255,0,255);stroke:none;" />
  <ellipse cx="404.2679" cy="197.7496" rx="5" ry="5" style="fill:rgb(255,0,255);stroke:none;" />
  <ellipse cx="338.2385" cy="204.7289" rx="5" ry="5" style="fill:rgb(255,0,255);stroke:none;" />
  <ellipse cx="423.642" cy="200.6322" rx="5" ry="5" style="fill:rgb(255,0,255);stroke:none;" />
  <ellipse cx="84.4011" cy="192.307" rx="5" ry="5" style="fill:rgb(0,191,127);stroke:none;" />
  <ellipse cx="124.1162" cy="142.3016" rx="5" ry="5" style="fill:rgb(0,191,127);stroke:none;" />
  <ellipse cx="179.1726" cy="137.6386" rx="5" ry="5" style="fill:rgb(0,191,127);stroke:none;" />
  <ellipse cx="250.8926" cy="95.3564" rx="5" ry="5" style="fill:rgb(0,191,127);stroke:none;" />
  <ellipse cx="135.8383" cy="118.5273" rx="5" ry="5" style="fill:rgb(0,191,127);stroke:none;" />
  <ellipse cx="40.0178" cy="158.6559" rx="5" ry="5" style="fill:rgb(0,191,127);stroke:none;" />
  <ellipse cx="239.2385" cy="110.855" rx="5" ry="5" style="fill:rgb(0,191,127);stroke:none;" />
  <ellipse cx="187.6881" cy="104.0135" rx="5" ry="5" style="fill:rgb(0,191,127);stroke:none;" />
  <ellipse cx="148.2984" cy="76.7318" rx="5" ry="5" style="fill:rgb(0,191,127);stroke:none;" />
  <ellipse cx="173.288" cy="131.65" rx="5" ry="5" style="fill:rgb(0,191,127);stroke:none;" />
  <ellipse cx="78.3842" cy="151.0455" rx="5" ry="5" style="fill:rgb(0,191,127);stroke:none;" />
  <ellipse cx="103.9064" cy="47.4678" rx="5" ry="5" style="fill:rgb(0,191,127);stroke:none;" />
  <ellipse cx="116.6622" cy="54.154" rx="5" ry="5" style="fill:rgb(0,191,127);stroke:none;" />
  <ellipse cx="275.5774" cy="130.2543" rx="5" ry="5" style="fill:rgb(0,191,127);stroke:none;" />
  <ellipse cx="218.0205" cy="220.0554" rx="5" ry="5" style="fill:rgb(255,0,0);stroke:none;" />
  <ellipse cx="132.2147" cy="243.6694" rx="5" ry="5" style="fill:rgb(255,0,0);stroke:none;" />
  <ellipse cx="225.7759" cy="285.916" rx="5" ry="5" style="fill:rgb(255,0,0);stroke:none;" />
  <ellipse cx="206.1649" cy="278.4455" rx="5" ry="5" style="fill:rgb(255,0,0);stroke:none;" />
  <ellipse cx="210.8689" cy="214.2371" rx="5" ry="5" style="fill:rgb(255,0,0);stroke:none;" />
  <ellipse cx="182.9559" cy="333.8909" rx="5" ry="5" style="fill:rgb(255,0,0);stroke:none;" />
  <ellipse cx="169.4882" cy="367.5622" rx="5" ry="5" style="fill:rgb(255,0,0);stroke:none;" />
  <ellipse cx="169.4882" cy="367.5622" rx="5" ry="5" style="fill:rgb(255,0,0);stroke:none;" />
  <ellipse cx="271.6225" cy="118.2982" rx="5" ry="5" style="fill:rgb(255,0,0);stroke:none;" />
  <ellipse cx="356.4336" cy="81.8582" rx="5" ry="5" style="fill:rgb(255,0,0);stroke:none;" />
  <ellipse cx="200.8006" cy="107.1129" rx="5" ry="5" style="fill:rgb(255,0,0);stroke:none;" />
  <ellipse cx="262.1172" cy="110.0892" rx="5" ry="5" style="fill:rgb(255,0,0);stroke:none;" />
  <ellipse cx="326.4127" cy="165.16" rx="5" ry="5" style="fill:rgb(255,0,0);stroke:none;" />
  <ellipse cx="216.4848" cy="56.3682" rx="5" ry="5" style="fill:rgb(255,0,0);stroke:none;" />
  <ellipse cx="191.4542" cy="137.362" rx="5" ry="5" style="fill:rgb(255,0,0);stroke:none;" />
  <ellipse cx="163.7803" cy="105.4474" rx="5" ry="5" style="fill:rgb(255,0,0);stroke:none;" />
  <ellipse cx="205.6395" cy="172.3184" rx="5" ry="5" style="fill:rgb(255,0,0);stroke:none;" />
  <ellipse cx="240.5224" cy="186.3695" rx="5" ry="5" style="fill:rgb(255,0,0);stroke:none;" />
  <ellipse cx="235.8703" cy="194.0524" rx="5" ry="5" style="fill:rgb(255,0,0);stroke:none;" />
  <ellipse cx="261.2022" cy="203.9255" rx="5" ry="5" style="fill:rgb(255,0,0);stroke:none;" />
  <ellipse cx="205.5204" cy="160.4182" rx="5" ry="5" style="fill:rgb(255,0,0);stroke:none;" />
  <ellipse cx="187.6767" cy="122.2695" rx="5" ry="5" style="fill:rgb(255,0,0);stroke:none;" />
  <ellipse cx="303.4073" cy="32.4308" rx="5" ry="5" style="fill:rgb(255,0,0);stroke:none;" />
  <ellipse cx="351.4659" cy="149.3578" rx="5" ry="5" style="fill:rgb(255,0,0);stroke:none;" />
  <ellipse cx="339.219" cy="188.08" rx="5" ry="5" style="fill:rgb(255,0,0);stroke:none;" />
  <ellipse cx="300.3352" cy="123.8105" rx="5" ry="5" style="fill:rgb(255,0,0);stroke:none;" />
  <ellipse cx="334.5407" cy="187.974" rx="5" ry="5" style="fill:rgb(255,0,0);stroke:none;" />
  <ellipse cx="337.6121" cy="189.7474" rx="5" ry="5" style="fill:rgb(255,0,0);stroke:none;" />
  <ellipse cx="337.6121" cy="189.7474" rx="5" ry="5" style="fill:rgb(255,0,0);stroke:none;" />
  <ellipse cx="318.6609" cy="178.5769" rx="5" ry="5" style="fill:rgb(255,0,0);stroke:none;" />
  <ellipse cx="337.6121" cy="189.7474" rx="5" ry="5" style="fill:rgb(255,0,0);stroke:none;" />
  <ellipse cx="309.8021" cy="183.7917" rx="5" ry="5" style="fill:rgb(255,0,0);stroke:none;" />
  <ellipse cx="170.1106" cy="160.3199" rx="5" ry="5" style="fill:rgb(255,0,0);stroke:none;" />
  <ellipse cx="218.8449" cy="157.8016" rx="5" ry="5" style="fill:rgb(255,0,0);stroke:none;" />
  <ellipse cx="229.012" cy="185.117" rx="5" ry="5" style="fill:rgb(255,0,0);stroke:none;" />
  <ellipse cx="247.9632" cy="196.2876" rx="5" ry="5" style="fill:rgb(255,0,0);stroke:none;" />
  <ellipse cx="233.4148" cy="192.2644" rx="5" ry="5" style="fill:rgb(255,0,0);stroke:none;" />
  <ellipse cx="192.7445" cy="97.9065" rx="5" ry="5" style="fill:rgb(255,0,0);stroke:none;" />
  <ellipse cx="201.8987" cy="139.6745" rx="5" ry="5" style="fill:rgb(255,0,0);stroke:none;" />
  <ellipse cx="261.0644" cy="150.597" rx="5" ry="5" style="fill:rgb(255,0,0);stroke:none;" />
  <ellipse cx="321.3608" cy="185.2497" rx="5" ry="5" style="fill:rgb(255,0,0);stroke:none;" />
  <ellipse cx="204.5069" cy="175.4343" rx="5" ry="5" style="fill:rgb(255,0,0);stroke:none;" />
  <ellipse cx="197.2204" cy="139.5685" rx="5" ry="5" style="fill:rgb(255,0,0);stroke:none;" />
  <ellipse cx="218.049" cy="147.895" rx="5" ry="5" style="fill:rgb(255,0,0);stroke:none;" />
  <ellipse cx="252.1076" cy="197.567" rx="5" ry="5" style="fill:rgb(255,0,0);stroke:none;" />
  <ellipse cx="220.2979" cy="252.9568" rx="5" ry="5" style="fill:rgb(255,0,0);stroke:none;" />
  <ellipse cx="227.0118" cy="183.8585" rx="5" ry="5" style="fill:rgb(255,0,0);stroke:none;" />
  <ellipse cx="194.5767" cy="342.6715" rx="5" ry="5" style="fill:rgb(255,0,0);stroke:none;" />
  <ellipse cx="237.3968" cy="294.6966" rx="5" ry="5" style="fill:rgb(255,0,0);stroke:none;" />
  <ellipse cx="237.3968" cy="294.6966" rx="5" ry="5" style="fill:rgb(255,0,0);stroke:none;" />
  <ellipse cx="237.3968" cy="294.6966" rx="5" ry="5" style="fill:rgb(255,0,0);stroke:none;" />
  <ellipse cx="194.5767" cy="342.6715" rx="5" ry="5" style="fill:rgb(255,0,0);stroke:none;" />
  <ellipse cx="255.6875" cy="113.6884" rx="5" ry="5" style="fill:rgb(255,0,0);stroke:none;" />
  <ellipse cx="324.6414" cy="199.0518" rx="5" ry="5" style="fill:rgb(255,0,0);stroke:none;" />
  <ellipse cx="244.6757" cy="150.4777" rx="5" ry="5" style="fill:rgb(255,0,0);stroke:none;" />
  <ellipse cx="213.8422" cy="140.9606" rx="5" ry="5" style="fill:rgb(255,0,0);stroke:none;" />
  <ellipse cx="208.0443" cy="309.0003" rx="5" ry="5" style="fill:rgb(255,0,0);stroke:none;" />
  <ellipse cx="208.0443" cy="309.0003" rx="5" ry="5" style="fill:rgb(255,0,0);stroke:none;" />
  <ellipse cx="208.0443" cy="309.0003" rx="5" ry="5" style="fill:rgb(255,0,0);stroke:none;" />
  <ellipse cx="231.2533" cy="253.5549" rx="5" ry="5" style="fill:rgb(255,0,0);stroke:none;" />
  <ellipse cx="244.955" cy="167.094" rx="5" ry="5" style="fill:rgb(255,0,0);stroke:none;" />
  <text dominant-baseline="hanging" text-anchor="middle" transform="translate(313.249,8)" font-family="Segoe UI" font-size="18" font-weight="700" fill="black">Customer Segmentation</text>
  <polygon points="34.498,29.0795 592,29.0795 592,370.947 34.498,370.947" style="fill:none;stroke:black;stroke-width:1" />
  <polygon points="509.516,37.0795 584,37.0795 584,83.2385 509.516,83.2385" style="fill:none;stroke:none;" />
  <text dominant-baseline="hanging" text-anchor="start" transform="translate(537.516,45.0795)" font-family="Segoe UI" font-size="12" font-weight="400" fill="black">Cluster: 1</text>
  <ellipse cx="525.516" cy="50.106" rx="5" ry="5" style="fill:rgb(255,0,255);stroke:none;" />
  <text dominant-baseline="hanging" text-anchor="start" transform="translate(537.516,55.1325)" font-family="Segoe UI" font-size="12" font-weight="400" fill="black">Cluster: 2</text>
  <ellipse cx="525.516" cy="60.159" rx="5" ry="5" style="fill:rgb(0,191,127);stroke:none;" />
  <text dominant-baseline="hanging" text-anchor="start" transform="translate(537.516,65.1855)" font-family="Segoe UI" font-size="12" font-weight="400" fill="black">Cluster: 3</text>
  <ellipse cx="525.516" cy="70.212" rx="5" ry="5" style="fill:rgb(255,0,0);stroke:none;" />
</svg>