<?xml version="1.0" encoding="utf-8" standalone="no"?>
<!DOCTYPE svg PUBLIC "-//W3C//DTD SVG 1.1//EN" "http://www.w3.org/Graphics/SVG/1.1/DTD/svg11.dtd">
<svg width="600" height="400" version="1.1" xmlns:xlink="http://www.w3.org/1999/xlink" xmlns="http://www.w3.org/2000/svg">
  <polyline points="75.1936,356.894 75.1936,360.894" style="fill:none;stroke:black;stroke-width:1" />
  <polyline points="102.1386,356.894 102.1386,360.894" style="fill:none;stroke:black;stroke-width:1" />
  <polyline points="129.0837,356.894 129.0837,360.894" style="fill:none;stroke:black;stroke-width:1" />
  <polyline points="156.0288,356.894 156.0288,360.894" style="fill:none;stroke:black;stroke-width:1" />
  <polyline points="209.9189,356.894 209.9189,360.894" style="fill:none;stroke:black;stroke-width:1" />
  <polyline points="236.864,356.894 236.864,360.894" style="fill:none;stroke:black;stroke-width:1" />
  <polyline points="263.8091,356.894 263.8091,360.894" style="fill:none;stroke:black;stroke-width:1" />
  <polyline points="290.7541,356.894 290.7541,360.894" style="fill:none;stroke:black;stroke-width:1" />
  <polyline points="344.6443,356.894 344.6443,360.894" style="fill:none;stroke:black;stroke-width:1" />
  <polyline points="371.5893,356.894 371.5893,360.894" style="fill:none;stroke:black;stroke-width:1" />
  <polyline points="398.5344,356.894 398.5344,360.894" style="fill:none;stroke:black;stroke-width:1" />
  <polyline points="425.4795,356.894 425.4795,360.894" style="fill:none;stroke:black;stroke-width:1" />
  <polyline points="479.3696,356.894 479.3696,360.894" style="fill:none;stroke:black;stroke-width:1" />
  <polyline points="506.3147,356.894 506.3147,360.894" style="fill:none;stroke:black;stroke-width:1" />
  <polyline points="533.2597,356.894 533.2597,360.894" style="fill:none;stroke:black;stroke-width:1" />
  <polyline points="560.2048,356.894 560.2048,360.894" style="fill:none;stroke:black;stroke-width:1" />
  <polyline points="45.554,356.894 41.554,356.894" style="fill:none;stroke:black;stroke-width:1" />
  <polyline points="45.554,332.0057 41.554,332.0057" style="fill:none;stroke:black;stroke-width:1" />
  <polyline points="45.554,319.5615 41.554,319.5615" style="fill:none;stroke:black;stroke-width:1" />
  <polyline points="45.554,307.1174 41.554,307.1174" style="fill:none;stroke:black;stroke-width:1" />
  <polyline points="45.554,294.6732 41.554,294.6732" style="fill:none;stroke:black;stroke-width:1" />
  <polyline points="45.554,269.7849 41.554,269.7849" style="fill:none;stroke:black;stroke-width:1" />
  <polyline points="45.554,257.3407 41.554,257.3407" style="fill:none;stroke:black;stroke-width:1" />
  <polyline points="45.554,244.8965 41.554,244.8965" style="fill:none;stroke:black;stroke-width:1" />
  <polyline points="45.554,232.4524 41.554,232.4524" style="fill:none;stroke:black;stroke-width:1" />
  <polyline points="45.554,207.5641 41.554,207.5641" style="fill:none;stroke:black;stroke-width:1" />
  <polyline points="45.554,195.1199 41.554,195.1199" style="fill:none;stroke:black;stroke-width:1" />
  <polyline points="45.554,182.6757 41.554,182.6757" style="fill:none;stroke:black;stroke-width:1" />
  <polyline points="45.554,170.2316 41.554,170.2316" style="fill:none;stroke:black;stroke-width:1" />
  <polyline points="45.554,145.3433 41.554,145.3433" style="fill:none;stroke:black;stroke-width:1" />
  <polyline points="45.554,132.8991 41.554,132.8991" style="fill:none;stroke:black;stroke-width:1" />
  <polyline points="45.554,120.4549 41.554,120.4549" style="fill:none;stroke:black;stroke-width:1" />
  <polyline points="45.554,108.0108 41.554,108.0108" style="fill:none;stroke:black;stroke-width:1" />
  <polyline points="45.554,83.1224 41.554,83.1224" style="fill:none;stroke:black;stroke-width:1" />
  <polyline points="45.554,70.6783 41.554,70.6783" style="fill:none;stroke:black;stroke-width:1" />
  <polyline points="45.554,58.2341 41.554,58.2341" style="fill:none;stroke:black;stroke-width:1" />
  <polyline points="45.554,45.79 41.554,45.79" style="fill:none;stroke:black;stroke-width:1" />
  <text dominant-baseline="hanging" text-anchor="middle" transform="translate(48.2485,367.894)" font-family="Segoe UI" font-size="12" font-weight="400" fill="black">0</text>
  <text dominant-baseline="hanging" text-anchor="middle" transform="translate(182.9739,367.894)" font-family="Segoe UI" font-size="12" font-weight="400" fill="black">5</text>
  <text dominant-baseline="hanging" text-anchor="middle" transform="translate(317.6992,367.894)" font-family="Segoe UI" font-size="12" font-weight="400" fill="black">10</text>
  <text dominant-baseline="hanging" text-anchor="middle" transform="translate(452.4245,367.894)" font-family="Segoe UI" font-size="12" font-weight="400" fill="black">15</text>
  <text dominant-baseline="hanging" text-anchor="middle" transform="translate(587.1499,367.894)" font-family="Segoe UI" font-size="12" font-weight="400" fill="black">20</text>
  <polyline points="48.2485,356.894 48.2485,363.894" style="fill:none;stroke:black;stroke-width:1" />
  <polyline points="182.9739,356.894 182.9739,363.894" style="fill:none;stroke:black;stroke-width:1" />
  <polyline points="317.6992,356.894 317.6992,363.894" style="fill:none;stroke:black;stroke-width:1" />
  <polyline points="452.4245,356.894 452.4245,363.894" style="fill:none;stroke:black;stroke-width:1" />
  <polyline points="587.1499,356.894 587.1499,363.894" style="fill:none;stroke:black;stroke-width:1" />
  <text dominant-baseline="baseline" text-anchor="middle" transform="translate(318.777,388)" font-family="Segoe UI" font-size="12" font-weight="400" fill="black">k</text>
  <text dominant-baseline="middle" text-anchor="end" transform="translate(34.554,344.4498)" font-family="Segoe UI" font-size="12" font-weight="400" fill="black">0</text>
  <text dominant-baseline="middle" text-anchor="end" transform="translate(34.554,282.229)" font-family="Segoe UI" font-size="12" font-weight="400" fill="black">0.5</text>
  <text dominant-baseline="middle" text-anchor="end" transform="translate(34.554,220.0082)" font-family="Segoe UI" font-size="12" font-weight="400" fill="black">1</text>
  <text dominant-baseline="middle" text-anchor="end" transform="translate(34.554,157.7874)" font-family="Segoe UI" font-size="12" font-weight="400" fill="black">1.5</text>
  <text dominant-baseline="middle" text-anchor="end" transform="translate(34.554,95.5666)" font-family="Segoe UI" font-size="12" font-weight="400" fill="black">2</text>
  <text dominant-baseline="middle" text-anchor="end" transform="translate(34.554,33.3458)" font-family="Segoe UI" font-size="12" font-weight="400" fill="black">2.5</text>
  <polyline points="45.554,344.4498 38.554,344.4498" style="fill:none;stroke:black;stroke-width:1" />
  <polyline points="45.554,282.229 38.554,282.229" style="fill:none;stroke:black;stroke-width:1" />
  <polyline points="45.554,220.0082 38.554,220.0082" style="fill:none;stroke:black;stroke-width:1" />
  <polyline points="45.554,157.7874 38.554,157.7874" style="fill:none;stroke:black;stroke-width:1" />
  <polyline points="45.554,95.5666 38.554,95.5666" style="fill:none;stroke:black;stroke-width:1" />
  <polyline points="45.554,33.3458 38.554,33.3458" style="fill:none;stroke:black;stroke-width:1" />
  <text dominant-baseline="hanging" text-anchor="middle" transform="translate(12,192.9868) rotate(-90)" font-family="Segoe UI" font-size="12" font-weight="400" fill="black">loss</text>
  <polyline points="102.1386,30.6371 129.0837,40.357 156.0288,73.6564 182.9739,84.2321 209.9189,93.4955 236.864,100.8635 263.8091,107.0023 290.7541,117.8877 317.6992,116.2402 344.6443,139.1198 371.5893,121.5133 398.5344,139.5423 425.4795,159.4947 452.4245,157.0993 479.3696,174.2521 506.3147,173.9122 533.2597,176.9441 560.2048,186.3923 587.1499,184.8554" style="fill:none;stroke:rgb(78,154,6);stroke-width:2;stroke-linejoin:bevel" />
  <text dominant-baseline="hanging" text-anchor="middle" transform="translate(318.777,8)" font-family="Segoe UI" font-size="18" font-weight="700" fill="black">elbow method</text>
  <polygon points="45.554,29.0795 592,29.0795 592,356.894 45.554,356.894" style="fill:none;stroke:black;stroke-width:1" />
  <polygon points="497.501,37.0795 584,37.0795 584,63.1325 497.501,63.1325" style="fill:none;stroke:none;" />
  <text dominant-baseline="hanging" text-anchor="start" transform="translate(525.501,45.0795)" font-family="Segoe UI" font-size="12" font-weight="400" fill="black">kValues (20)</text>
  <polyline points="505.501,50.106 521.501,50.106" style="fill:none;stroke:rgb(78,154,6);stroke-width:2" />
</svg>