<svg xmlns="http://www.w3.org/2000/svg" viewBox="0 0 512 512" fill="#d0021b"><circle cx="337.921" cy="236" r="10"/><path d="M339.637 278.848c-5.459-.811-10.548 2.964-11.357 8.427-2.733 18.455-18.333 33.761-41.729 40.945-25.007 7.679-59.718 5.105-80.893-17.954-3.736-4.068-10.062-4.336-14.129-.602-4.068 3.736-4.337 10.062-.602 14.129 12.258 13.349 28.907 22.447 48.147 26.31 6.794 1.364 13.842 2.041 20.936 2.041 10.958 0 22.024-1.615 32.412-4.805 30.95-9.503 51.751-30.861 55.642-57.134.809-5.463-2.964-10.548-8.427-11.357z"/><path d="M478.626 190.411c-18.176-21.071-43.262-34.733-73.458-40.22 28.91-19.51 53.846-38.926 71.626-55.868 27.109-25.831 36.199-43.983 28.609-57.122-8.446-14.634-32.827-14.533-76.733.321-37.097 12.55-83.311 34.347-130.127 61.377a1013.106 1013.106 0 0 0-23.936 14.265c-5.813-16.417-1.979-35.17 10.847-51.431 9.607-12.18 11.752-27.65 5.599-40.375C284.603 8.021 270.447.036 253.162 0h-.47c-61.006 0-120.677 24.071-168.02 67.779C37.27 111.541 8.25 169.473 2.958 230.902c-6.367 73.98 17.281 144.314 66.586 198.045C117.978 481.729 186.643 512 257.932 512c38.38 0 74.41-7.022 107.087-20.873 29.88-12.665 56.414-30.749 78.866-53.752 20.817-21.329 37.23-45.882 48.783-72.979 10.994-25.784 17-53.108 17.372-79.017.541-37.678-10.322-70.517-31.414-94.968zm-202.85-54.423a983.108 983.108 0 0 1 32.766-19.768c43.286-24.992 86.39-45.577 121.373-57.964 38.51-13.635 54.277-12.745 57.953-10.985-.318 2.327-3.208 12.68-28.479 35.952-21.102 19.433-51.917 42.286-86.768 64.349a979.877 979.877 0 0 1-34.078 20.607c-15.985 9.226-31.958 17.853-47.635 25.752a150.362 150.362 0 0 0-12.016-26.44 150.561 150.561 0 0 0-16.345-22.996 871.774 871.774 0 0 1 13.229-8.507zm-2.986 66.814c-28.237 13.391-54.147 23.6-74.838 29.522a50.078 50.078 0 0 0-5.658-14.831 49.953 49.953 0 0 0-9.435-11.766c15.49-14.949 37.292-32.269 62.964-49.988a130.395 130.395 0 0 1 26.967 47.063zm217.252 82.29C488.616 384.6 399.469 492 257.932 492c-65.702 0-128.995-27.91-173.651-76.574-45.473-49.554-67.276-114.477-61.396-182.808C32.984 115.38 136.075 20 252.692 20h.449c9.567.02 16.823 3.688 19.906 10.065 2.835 5.862 1.603 13.07-3.297 19.282-18.023 22.85-22.543 50.953-12.36 74.648a857.905 857.905 0 0 0-15.792 10.412c-31.799 21.457-58.651 42.8-76.517 60.761-13.55-4.631-28.438-3.281-41.092 4.023-20.776 12.001-48.056 67.926-53.313 79.015a10 10 0 0 0 8.227 14.252c5.527.448 21.222 1.58 38.691 1.58 21.198 0 45.006-1.668 56.396-8.247a49.883 49.883 0 0 0 23.852-32.702c24.523-6.437 56.564-19.03 91.266-35.937 19.443-9.463 39.439-20.112 59.435-31.652a1004.86 1004.86 0 0 0 29.917-17.988c.059.003.116.012.175.014 83.349 2.39 112.2 62.298 111.407 117.566zm-311.1-40.722a29.961 29.961 0 0 1-14.952 24.101c-9.457 5.463-41.945 6.199-68.62 4.979 12.275-23.704 29.154-51.47 38.621-56.938 8.938-5.16 19.744-5.386 28.912-.603a29.817 29.817 0 0 1 12.067 11.578 29.92 29.92 0 0 1 3.972 16.883z"/><path d="M177.922 61.84c-22.056 0-40 17.944-40 40s17.944 40 40 40 40-17.944 40-40-17.944-40-40-40zm0 60c-11.028 0-20-8.972-20-20s8.972-20 20-20 20 8.972 20 20-8.972 20-20 20zm-50 208.71c-22.056 0-40 17.944-40 40s17.944 40 40 40 40-17.944 40-40-17.944-40-40-40zm0 60c-11.028 0-20-8.972-20-20s8.972-20 20-20 20 8.972 20 20-8.972 20-20 20zm100 0c-22.056 0-40 17.944-40 40s17.944 40 40 40 40-17.944 40-40-17.944-40-40-40zm0 60c-11.028 0-20-8.972-20-20s8.972-20 20-20 20 8.972 20 20-8.972 20-20 20zm120-80c-22.056 0-40 17.944-40 40s17.944 40 40 40 40-17.944 40-40-17.944-40-40-40zm0 60c-11.028 0-20-8.972-20-20s8.972-20 20-20 20 8.972 20 20-8.972 20-20 20zm80-160c-22.056 0-40 17.944-40 40s17.944 40 40 40 40-17.944 40-40-17.944-40-40-40zm0 60c-11.028 0-20-8.972-20-20s8.972-20 20-20 20 8.972 20 20-8.972 20-20 20z"/></svg>