<?xml version="1.0" encoding="utf-8"?>
<!-- Generator: Adobe Illustrator 22.0.1, SVG Export Plug-In . SVG Version: 6.00 Build 0)  -->
<svg version="1.1" xmlns="http://www.w3.org/2000/svg" xmlns:xlink="http://www.w3.org/1999/xlink" x="0px" y="0px"
	 viewBox="0 0 100 100" enable-background="new 0 0 100 100" xml:space="preserve">
<g id="Your_Icon_copia_41" display="none">
	<g display="inline">
		<g>
			<g>
			</g>
		</g>
		<g>
		</g>
	</g>
	<g display="inline">
		<g>
			<polygon fill="#070308" points="70.098,63.829 92.628,42.424 78.576,27.633 			"/>
			<polygon fill="#070308" points="60.105,40.579 60.533,41.914 66.145,59.433 73.027,30.043 73.552,27.805 74.049,25.687 
				73.967,25.669 54.003,20.993 53.929,21.304 59.678,39.246 			"/>
			<polygon fill="#070308" points="48.768,23.601 48.021,21.266 47.809,20.606 28.204,26.887 28.923,29.13 42.904,43.111 
				43.954,44.162 45.004,45.212 47.415,47.623 48.308,48.515 49.2,49.409 60.674,60.88 60.693,60.82 55.206,43.701 54.78,42.366 
				54.354,41.032 49.518,25.939 			"/>
			<path fill="#070308" d="M22.209,30.646l-0.035,0.035L7.653,45.202l25.666,25.666l1.05,1.049l1.05,1.05l0.447,0.447l0.321,0.322
				l1.342,1.343l0.285,0.285l1.056,1.056l0.895,0.894l1.002,1.002l0.935,0.935l0.935,0.934l1.41,1.412l4.508-4.509l0.101-0.1
				l0.198-0.198l0.996-0.995l0.505-0.505l0.689-0.69l0.496-0.496l0.315-0.316l2.674-2.672l0.137-0.138l1.913-1.913l1.173-1.172
				l0.742-0.742l0.11-0.111l-0.058-0.057l-0.471-0.471l-0.539-0.54l-1.009-1.008L44.563,52.997l-0.892-0.891l-0.892-0.892
				l-1.834-1.835l-1.05-1.05l-1.05-1.05L26.04,34.476l-1.949-1.949L22.209,30.646z M45.673,65.137c2.072,0,3.753,1.68,3.753,3.753
				c0,2.074-1.681,3.753-3.753,3.753c-2.073,0-3.753-1.681-3.753-3.753C41.919,66.817,43.599,65.137,45.673,65.137z"/>
		</g>
	</g>
</g>
<g id="Your_Icon_copia_40" display="none">
	<g display="inline">
		<g>
			<g>
			</g>
		</g>
		<g>
		</g>
	</g>
	<g display="inline">
		<g>
			<path fill="#070308" d="M51.306,12.666c-13.678,0-24.807,11.129-24.807,24.807c0,4.106,1.027,8.177,2.978,11.789L49.95,86.287
				c0.272,0.494,0.792,0.799,1.356,0.799c0.565,0,1.084-0.306,1.357-0.799L73.142,49.25c1.944-3.599,2.971-7.67,2.971-11.777
				C76.113,23.795,64.984,12.666,51.306,12.666z M51.306,49.876c-6.839,0-12.403-5.564-12.403-12.403S44.467,25.07,51.306,25.07
				s12.403,5.564,12.403,12.403S58.145,49.876,51.306,49.876z"/>
		</g>
	</g>
</g>
<g id="Your_Icon_copia_39" display="none">
	<g display="inline">
		<g>
			<g>
			</g>
		</g>
		<g>
		</g>
	</g>
	<g display="inline">
		<g>
			<path fill="#070308" d="M39.452,40.332c1.976,0,3.578,1.602,3.578,3.578c0,1.976-1.602,3.578-3.578,3.578
				c-1.976,0-3.578-1.602-3.578-3.578C35.874,41.933,37.476,40.332,39.452,40.332z"/>
			<path fill="#070308" d="M62.181,54.853c1.976,0,3.578,1.602,3.578,3.578c0,1.976-1.602,3.578-3.578,3.578
				c-1.976,0-3.578-1.602-3.578-3.578C58.604,56.455,60.205,54.853,62.181,54.853z"/>
			<path fill="#070308" d="M91.68,55.905l-1.298-1.771c-1.403-1.929-1.438-4.542-0.053-6.507l1.263-1.789
				c1.929-2.736,1.035-6.542-1.929-8.137l-1.929-1.035c-2.104-1.122-3.262-3.472-2.859-5.84l0.368-2.157
				c0.561-3.297-1.912-6.349-5.261-6.489l-2.192-0.088c-2.385-0.105-4.455-1.719-5.121-4.016l-0.614-2.104
				c-0.929-3.227-4.472-4.893-7.559-3.56l-2.017,0.859c-2.192,0.947-4.753,0.386-6.349-1.403l-1.456-1.631
				c-2.227-2.49-6.138-2.473-8.348,0.07l-1.438,1.649c-1.578,1.806-4.121,2.403-6.331,1.491l-2.034-0.842
				c-3.104-1.28-6.612,0.456-7.506,3.683l-0.579,2.122c-0.631,2.315-2.666,3.964-5.051,4.086l-2.192,0.123
				c-3.35,0.193-5.77,3.28-5.156,6.577l0.403,2.157c0.438,2.35-0.684,4.718-2.771,5.875l-1.912,1.07
				c-2.929,1.631-3.771,5.454-1.789,8.155l1.298,1.771c1.403,1.929,1.438,4.542,0.053,6.507l-1.263,1.789
				c-1.929,2.736-1.035,6.542,1.929,8.138l1.929,1.035c2.105,1.122,3.262,3.472,2.859,5.84l-0.368,2.157
				c-0.561,3.297,1.912,6.349,5.261,6.489l2.192,0.088c2.385,0.105,4.455,1.719,5.121,4.016l0.614,2.105
				c0.93,3.227,4.472,4.893,7.559,3.56l2.017-0.859c2.192-0.947,4.753-0.386,6.349,1.403l1.456,1.631
				c2.245,2.49,6.156,2.473,8.348-0.07l1.438-1.648c1.578-1.806,4.121-2.403,6.331-1.491l2.034,0.842
				c3.104,1.28,6.612-0.456,7.506-3.683l0.579-2.122c0.631-2.315,2.666-3.964,5.051-4.086l2.192-0.123
				c3.35-0.193,5.77-3.28,5.156-6.577l-0.403-2.157c-0.438-2.35,0.684-4.718,2.771-5.875l1.912-1.07
				C92.82,62.447,93.662,58.623,91.68,55.905z M30.806,43.909c0-4.77,3.858-8.629,8.629-8.629s8.629,3.858,8.629,8.629
				s-3.858,8.629-8.629,8.629S30.806,48.662,30.806,43.909z M41.101,66.165c-0.737,0.894-2.069,1.017-2.964,0.281l0,0
				c-0.894-0.737-1.017-2.069-0.281-2.964L60.498,36.21c0.737-0.894,2.069-1.017,2.964-0.281c0.894,0.737,1.017,2.069,0.281,2.964
				L41.101,66.165z M62.181,67.059c-4.77,0-8.629-3.858-8.629-8.629s3.858-8.629,8.629-8.629s8.629,3.858,8.629,8.629
				S66.951,67.059,62.181,67.059z"/>
		</g>
	</g>
</g>
<g id="Your_Icon_copia_38" display="none">
	<g display="inline">
		<g>
			<g>
			</g>
		</g>
		<g>
		</g>
	</g>
	<g display="inline">
		<path fill="#070308" d="M84.793,47.598c-2.496,2.802-4.942,5.821-6.649,9.985c-0.777,1.923-2.623,3.171-4.7,3.171
			c-2.089,0-3.935-1.248-4.725-3.184c-1.974-4.84-4.967-8.139-7.871-11.323c-0.726-0.802-1.452-1.605-2.165-2.433
			c-0.038,0.013-0.064,0.026-0.102,0.038c-2.827,0.853-5.006,4.598-3.694,7.642c0.891,2.089,7.145,1.694,6.61,6.19
			c-0.446,3.681,4.368,4.649,6.075,4.471c1.707-0.204,4.33,2.802,3.006,4.127c-1.312,1.325-3.796,1.376-3.413,4.789
			c0.102,0.993,3.108,0.866,3.108,2.369c0,1.516-1.554,3.235-0.357,4.98c0.255,0.382,0.522,0.675,0.802,0.904
			c-5.757,5.298-13.437,8.546-21.856,8.546c-17.793,0-32.261-14.469-32.261-32.262c0-5.4,1.337-10.495,3.694-14.978
			c-0.013,5.795,3.082,10.609,4.534,12.061c4.738,4.725,11.603,3.235,12.482,7.196c0.892,3.948-4.713,3.961-4.343,6.98
			c0.382,3.031,7.68,3.834,6.05,6.623c-2.153,3.706,1.452,3.974,0.408,8.546c-0.56,2.496,3.044,2.98,4.381,1.083
			c1.019-1.452,0.815-3.235,2.866-5.413c2.509-2.675,8.33-3.108,7.68-7.527c-1.108-7.336-8.24-8.483-11.348-10.202
			c-3.528-1.936-2.662-6.585-3.426-8.801c-1.07-3.146-4.7,0.879-6.636-0.955c-3.184-3.006,0.573-7.26,3.248-7.171
			c5.642,0.178,7.374,5.668,9.45,5.477c2.025-0.178,3.337-3.006,3.694-4.509c0.752-3.273-1.274-1.809-2.089-3.515
			c-1.095-2.28,3.846-4.458,5.757-6.139c0.293-0.255,0.509-0.497,0.624-0.726c0.573-1.121-0.178-1.974-1.452-2.751
			c-2.547-1.541-7.196-2.764-7.412-5.171c-0.128-1.478,2.7-2.191,5.922-2.318c0.535,0.025,1.057,0.076,1.592,0.127
			c0.267-1.516,0.7-3.006,1.286-4.432c-1.541-0.204-3.108-0.306-4.7-0.306c-20.302,0-36.821,16.519-36.821,36.821
			c0,20.303,16.519,36.822,36.821,36.822S85.684,75.911,85.684,55.61C85.684,52.859,85.378,50.171,84.793,47.598z M71.712,9.415
			c-10.394,0.983-17.514,11.054-15.699,21.336c1.842,10.444,11.472,13.659,16.251,25.383c0.431,1.056,1.918,1.062,2.349,0.005
			c5.298-13.003,16.562-15.541,16.562-29.071C91.174,16.703,82.283,8.416,71.712,9.415z M73.439,36.434
			c-5.173,0-9.366-4.193-9.366-9.366c0-5.173,4.193-9.366,9.366-9.366s9.366,4.193,9.366,9.366
			C82.804,32.24,78.611,36.434,73.439,36.434z"/>
	</g>
</g>
<g id="Your_Icon_copia_37" display="none">
	<g display="inline">
		<g>
			<g>
			</g>
		</g>
		<g>
		</g>
	</g>
	<g display="inline">
		<path fill="#070308" d="M63.035,82.254c-2.281,2.269-5.964,2.269-8.233,0L22.729,52.173c-1.793-1.682-3.931-4.869-4.085-7.323
			c-0.412-6.637-0.122-19.347,0.08-26.085c0.073-2.456,2.137-4.515,4.595-4.571c8.608-0.2,26.847-0.414,28.542,1.283l35.319,31.954
			c2.268,2.269,0.211,8.009-2.075,10.29L63.035,82.254z M34.93,23.955c-1.924-1.919-5.034-1.919-6.959,0
			c-1.919,1.925-1.919,5.034,0,6.953c1.927,1.921,5.037,1.921,6.959,0C36.851,28.989,36.851,25.879,34.93,23.955z"/>
	</g>
</g>
<g id="Your_Icon_copia_36" display="none">
	<g display="inline">
		<g>
			<g>
			</g>
		</g>
		<g>
		</g>
	</g>
	<g display="inline">
		<rect x="10.825" y="23.556" fill="#070308" width="8.744" height="52.463"/>
		<rect x="32.817" y="23.556" fill="#070308" width="8.744" height="52.463"/>
		<rect x="46.065" y="23.556" fill="#070308" width="8.744" height="52.463"/>
		<rect x="76.536" y="23.556" fill="#070308" width="12.983" height="52.463"/>
		<rect x="24.073" y="23.556" fill="#070308" width="4.239" height="52.463"/>
		<rect x="59.048" y="23.556" fill="#070308" width="4.239" height="52.463"/>
		<rect x="67.792" y="23.556" fill="#070308" width="4.239" height="52.463"/>
	</g>
</g>
<g id="Your_Icon_copia_35" display="none">
	<g display="inline">
		<g>
			<g>
			</g>
		</g>
		<g>
		</g>
	</g>
	<g display="inline">
		<g>
			<path fill="#070308" d="M49.739,34.112c-5.459,0-9.899,4.441-9.899,9.899s4.441,9.899,9.899,9.899
				c5.459,0,9.899-4.441,9.899-9.899S55.198,34.112,49.739,34.112z"/>
		</g>
	</g>
	<g display="inline">
		<g>
			<path fill="#070308" d="M49.739,60.51c-9.097,0-16.499,7.402-16.499,16.499c0,2.331,0.498,4.543,1.374,6.555
				c4.611,2.126,9.723,3.344,15.125,3.344c5.402,0,10.513-1.218,15.125-3.344c0.876-2.013,1.374-4.224,1.374-6.555
				C66.238,67.912,58.836,60.51,49.739,60.51z"/>
		</g>
	</g>
	<g display="inline">
		<g>
			<path fill="#070308" d="M49.739,14.093c-20.015,0-36.298,16.503-36.298,36.518c0,11.325,5.219,21.45,13.372,28.111
				c-0.043-0.576-0.173-1.126-0.173-1.713c0-8.913,5.13-16.575,12.543-20.425c-3.602-3.029-5.943-7.51-5.943-12.573
				c0-9.097,7.402-16.499,16.499-16.499c9.097,0,16.499,7.402,16.499,16.499c0,5.063-2.342,9.544-5.943,12.573
				c7.412,3.85,12.543,11.512,12.543,20.425c0,0.587-0.13,1.137-0.173,1.713c8.154-6.662,13.373-16.786,13.373-28.111
				C86.037,30.596,69.754,14.093,49.739,14.093z"/>
		</g>
	</g>
</g>
<g id="Your_Icon_copia_42" display="none">
	<g display="inline">
		<g>
			<g>
			</g>
		</g>
		<g>
		</g>
	</g>
	<path display="inline" fill="#070308" d="M80.136,26.889h-60c-1.104,0-2,0.896-2,2v36c0,1.104,0.896,2,2,2h60c1.105,0,2-0.896,2-2
		v-36C82.136,27.785,81.24,26.889,80.136,26.889z M73.733,30.889L50.136,45.536L26.539,30.889H73.733z M78.136,62.889h-56V32.864
		l28,17.379l28-17.379V62.889z"/>
</g>
<g id="Your_Icon_copia_43" display="none">
	<g display="inline">
		<g>
			<g>
			</g>
		</g>
		<g>
		</g>
	</g>
	<g display="inline">
		<path fill="#070308" d="M79.999,21h-60c-1.104,0-2,0.896-2,2v50c0,1.104,0.896,2,2,2h60c1.105,0,2-0.896,2-2V23
			C81.999,21.896,81.105,21,79.999,21z M77.999,71h-56V37h56V71z M77.999,33h-56v-8h56V33z"/>
		<path fill="#070308" d="M27.999,31c0.519,0,1.041-0.21,1.42-0.59c0.371-0.37,0.58-0.881,0.58-1.41c0-0.52-0.209-1.04-0.59-1.41
			c-0.74-0.75-2.08-0.75-2.82,0c-0.379,0.37-0.59,0.88-0.59,1.41c0,0.529,0.211,1.04,0.59,1.42C26.96,30.79,27.48,31,27.999,31z"/>
		<path fill="#070308" d="M33.999,31c0.519,0,1.041-0.21,1.41-0.59c0.381-0.37,0.59-0.881,0.59-1.41c0-0.53-0.209-1.04-0.59-1.41
			c-0.74-0.75-2.08-0.75-2.82,0c-0.379,0.37-0.59,0.88-0.59,1.41c0,0.529,0.211,1.04,0.59,1.42C32.96,30.79,33.47,31,33.999,31z"/>
		<path fill="#070308" d="M39.999,31c0.531,0,1.041-0.21,1.41-0.58c0.381-0.38,0.59-0.891,0.59-1.42c0-0.53-0.209-1.04-0.59-1.42
			c-0.74-0.74-2.08-0.74-2.82,0.01c-0.379,0.37-0.59,0.891-0.59,1.41c0,0.529,0.211,1.04,0.59,1.42C38.96,30.79,39.47,31,39.999,31z
			"/>
		<path fill="#070308" d="M27.999,45h44c1.105,0,2-0.896,2-2s-0.895-2-2-2h-44c-1.104,0-2,0.896-2,2S26.896,45,27.999,45z"/>
		<path fill="#070308" d="M27.999,53h44c1.105,0,2-0.896,2-2s-0.895-2-2-2h-44c-1.104,0-2,0.896-2,2S26.896,53,27.999,53z"/>
		<path fill="#070308" d="M27.999,61h44c1.105,0,2-0.896,2-2s-0.895-2-2-2h-44c-1.104,0-2,0.896-2,2S26.896,61,27.999,61z"/>
	</g>
</g>
<g id="Your_Icon_copia_44">
	<g>
		<g>
			<g>
			</g>
		</g>
		<g>
		</g>
	</g>
	<g>
		<path fill="#070308" d="M51.041,43.41c-1.104,0-2,0.896-2,2v27.171l-4.586-4.586c-0.781-0.781-2.047-0.781-2.828,0
			c-0.781,0.781-0.781,2.047,0,2.828l8,8c0.391,0.391,0.902,0.586,1.414,0.586s1.023-0.195,1.414-0.586l8-8
			c0.781-0.781,0.781-2.047,0-2.828c-0.781-0.781-2.047-0.781-2.828,0l-4.586,4.586V45.41C53.041,44.306,52.145,43.41,51.041,43.41z
			"/>
		<path fill="#070308" d="M74.966,43.596C74.041,32.311,64.56,23.41,53.041,23.41c-10.224,0-19.043,6.635-21.591,16h-0.409
			c-6.617,0-12,5.383-12,12s5.383,12,12,12h12c1.104,0,2-0.896,2-2s-0.896-2-2-2h-12c-4.411,0-8-3.589-8-8s3.589-8,8-8h2
			c0.962,0,1.788-0.685,1.966-1.63c1.564-8.326,9.149-14.37,18.034-14.37c9.925,0,18,8.075,18,18c0,1.104,0.895,2,2,2
			c3.309,0,6,2.691,6,6c0,3.309-2.691,6-6,6h-14c-1.104,0-2,0.896-2,2s0.896,2,2,2h14c5.514,0,10-4.486,10-10
			C83.041,48.555,79.562,44.497,74.966,43.596z"/>
	</g>
</g>
</svg>
